<svg width="113" height="113" viewBox="0 0 113 113" fill="none" xmlns="http://www.w3.org/2000/svg">
<g clip-path="url(#clip0_1_2)">
<path d="M45.12 5C52.16 5 57.44 5.82667 60.96 7.48C64.48 9.08 66.24 11.6667 66.24 15.24C66.24 18.76 65.1467 21.4533 62.96 23.32C60.8267 25.1333 58.3733 26.04 55.6 26.04C52.8267 26.04 50.32 25.3467 48.08 23.96C45.8933 22.52 44.3733 20.6267 43.52 18.28C41.5467 18.28 39.6533 18.9467 37.84 20.28C36.08 21.56 34.96 23.24 34.48 25.32C45.04 27.88 52.6133 30.8667 57.2 34.28C61.7867 37.6933 64.08 42.0667 64.08 47.4C64.08 52.7333 61.6533 57 56.8 60.2C52 63.4 45.4933 65 37.28 65C29.12 65 23.3333 63.88 19.92 61.64C16.5067 59.4 14.8 56.44 14.8 52.76C14.8 49.08 15.9467 45.6933 18.24 42.6C19.36 45 21.4933 47.16 24.64 49.08C27.84 51 30.9867 51.96 34.08 51.96C39.7867 51.96 43.4133 50.1467 44.96 46.52C36.1067 45.3467 29.36 42.8933 24.72 39.16C20.08 35.3733 17.76 30.8133 17.76 25.48C17.76 21.9067 18.72 18.7333 20.64 15.96C22.56 13.1333 25.0133 10.9733 28 9.48C33.8667 6.49333 39.5733 5 45.12 5Z" fill="#30918D"/>
<path d="M79.08 52.68C79.08 50.44 79.4533 46.76 80.2 41.64H62.12C61.4267 45.64 61.08 48.3867 61.08 49.88C61.08 55.0533 61.88 58.92 63.48 61.48C60.28 63.88 56.9467 65.08 53.48 65.08C50.0133 65.08 47.5333 64.0933 46.04 62.12C44.5467 60.0933 43.8 57.1067 43.8 53.16C43.8 49.16 45.48 37.88 48.84 19.32L44.6 10.76C50.6267 6.86666 56.12 4.92 61.08 4.92C65.1867 4.92 67.24 7.42667 67.24 12.44C67.24 13.9333 66.12 20.4933 63.88 32.12H81.8C82.0133 30.7867 82.7867 26.52 84.12 19.32L79.88 10.76C85.9067 6.86666 91.4 4.92 96.36 4.92C100.467 4.92 102.52 7.42667 102.52 12.44C102.52 14.0933 101.48 20.2533 99.4 30.92C97.3733 41.5333 96.36 47.8533 96.36 49.88C96.36 55.0533 97.16 58.92 98.76 61.48C95.56 63.88 92.2267 65.08 88.76 65.08C85.2933 65.08 82.8133 64.0933 81.32 62.12C79.8267 60.0933 79.08 56.9467 79.08 52.68Z" fill="#30918D" fill-opacity="0.76"/>
<path d="M48.4 65.44C48.4 61.7067 49.2 57.92 50.8 54.08C52.4 50.1867 54.6667 46.5867 57.6 43.28C60.5333 39.9733 64.3467 37.28 69.04 35.2C73.7867 33.0667 78.6667 32 83.68 32C88.7467 32 92.6933 32.9333 95.52 34.8C98.4 36.6667 99.84 39.2533 99.84 42.56C99.84 45.8667 98.7467 48.4533 96.56 50.32C94.4267 52.1333 91.9733 53.04 89.2 53.04C86.4267 53.04 83.92 52.4533 81.68 51.28C79.4933 50.0533 77.7333 48.32 76.4 46.08C73.52 47.4667 71.04 50.1867 68.96 54.24C66.88 58.2933 65.84 62.3733 65.84 66.48C65.84 70.5333 66.5067 73.76 67.84 76.16C69.1733 78.5067 71.0667 79.68 73.52 79.68C75.9733 79.68 78.1333 78.4267 80 75.92C81.92 73.4133 82.88 70.4 82.88 66.88C88.2667 66.88 92.1067 67.3067 94.4 68.16C96.7467 69.0133 97.92 70.8533 97.92 73.68C97.92 78.1067 95.52 82.2667 90.72 86.16C85.92 90.0533 79.8933 92 72.64 92C65.3867 92 59.52 89.76 55.04 85.28C50.6133 80.8 48.4 74.1867 48.4 65.44Z" fill="#30918D"/>
<path d="M4.077 104L7.641 96.3H8.004L11.568 104H11.161L7.74 96.553H7.905L4.484 104H4.077ZM5.309 101.745L5.452 101.426H10.16L10.303 101.745H5.309ZM16.3224 104V96.641H13.4954V96.3H19.5124V96.641H16.6854V104H16.3224ZM21.9214 104.033C21.3567 104.033 20.8581 103.912 20.4254 103.67C19.9927 103.421 19.6517 103.076 19.4024 102.636C19.1531 102.196 19.0284 101.697 19.0284 101.14C19.0284 100.575 19.1421 100.077 19.3694 99.644C19.6041 99.2113 19.9231 98.8703 20.3264 98.621C20.7371 98.3717 21.1991 98.247 21.7124 98.247C22.2184 98.247 22.6731 98.368 23.0764 98.61C23.4871 98.852 23.8061 99.1893 24.0334 99.622C24.2681 100.047 24.3854 100.539 24.3854 101.096C24.3854 101.111 24.3854 101.129 24.3854 101.151C24.3854 101.166 24.3854 101.18 24.3854 101.195H19.2704V100.898H24.1874L24.0444 101.074C24.0444 100.597 23.9417 100.172 23.7364 99.798C23.5384 99.4167 23.2634 99.1197 22.9114 98.907C22.5594 98.687 22.1597 98.577 21.7124 98.577C21.2651 98.577 20.8654 98.687 20.5134 98.907C20.1614 99.1197 19.8827 99.4167 19.6774 99.798C19.4794 100.172 19.3804 100.601 19.3804 101.085V101.151C19.3804 101.65 19.4904 102.093 19.7104 102.482C19.9304 102.863 20.2311 103.164 20.6124 103.384C20.9937 103.597 21.4301 103.703 21.9214 103.703C22.2954 103.703 22.6474 103.633 22.9774 103.494C23.3147 103.355 23.5934 103.142 23.8134 102.856L24.0444 103.098C23.7877 103.406 23.4724 103.641 23.0984 103.802C22.7317 103.956 22.3394 104.033 21.9214 104.033ZM27.0564 104.033C26.5871 104.033 26.1471 103.963 25.7364 103.824C25.3258 103.677 25.0141 103.494 24.8014 103.274L24.9774 102.988C25.1901 103.179 25.4798 103.347 25.8464 103.494C26.2131 103.641 26.6201 103.714 27.0674 103.714C27.7054 103.714 28.1638 103.604 28.4424 103.384C28.7284 103.164 28.8714 102.878 28.8714 102.526C28.8714 102.269 28.8018 102.068 28.6624 101.921C28.5231 101.774 28.3398 101.661 28.1124 101.58C27.8851 101.499 27.6321 101.437 27.3534 101.393C27.0821 101.342 26.8071 101.287 26.5284 101.228C26.2498 101.162 25.9968 101.078 25.7694 100.975C25.5421 100.865 25.3588 100.715 25.2194 100.524C25.0801 100.333 25.0104 100.08 25.0104 99.765C25.0104 99.4937 25.0838 99.2443 25.2304 99.017C25.3844 98.7897 25.6154 98.6063 25.9234 98.467C26.2314 98.3203 26.6238 98.247 27.1004 98.247C27.4524 98.247 27.8044 98.302 28.1564 98.412C28.5158 98.5147 28.8018 98.654 29.0144 98.83L28.8274 99.116C28.6001 98.9327 28.3324 98.797 28.0244 98.709C27.7238 98.621 27.4121 98.577 27.0894 98.577C26.4954 98.577 26.0628 98.6907 25.7914 98.918C25.5201 99.1453 25.3844 99.424 25.3844 99.754C25.3844 100.018 25.4541 100.231 25.5934 100.392C25.7328 100.546 25.9161 100.663 26.1434 100.744C26.3708 100.825 26.6201 100.891 26.8914 100.942C27.1701 100.993 27.4451 101.048 27.7164 101.107C27.9951 101.166 28.2481 101.246 28.4754 101.349C28.7028 101.452 28.8861 101.595 29.0254 101.778C29.1648 101.961 29.2344 102.211 29.2344 102.526C29.2344 102.819 29.1501 103.083 28.9814 103.318C28.8201 103.545 28.5781 103.721 28.2554 103.846C27.9401 103.971 27.5404 104.033 27.0564 104.033ZM31.9044 104.033C31.4351 104.033 31.0758 103.901 30.8264 103.637C30.5771 103.373 30.4524 103.017 30.4524 102.57V97.037H30.8154V102.515C30.8154 102.904 30.9108 103.201 31.1014 103.406C31.2921 103.611 31.5708 103.714 31.9374 103.714C32.3114 103.714 32.6194 103.6 32.8614 103.373L33.0484 103.637C32.9091 103.769 32.7368 103.868 32.5314 103.934C32.3261 104 32.1171 104.033 31.9044 104.033ZM29.3744 98.61V98.291H32.6964V98.61H29.3744ZM38.5873 104.044C38.0226 104.044 37.4873 103.945 36.9813 103.747C36.4826 103.542 36.1013 103.285 35.8373 102.977L36.0353 102.713C36.2846 102.992 36.6366 103.23 37.0913 103.428C37.5533 103.619 38.0483 103.714 38.5763 103.714C39.1116 103.714 39.5516 103.641 39.8963 103.494C40.2409 103.347 40.4939 103.153 40.6553 102.911C40.8239 102.662 40.9083 102.387 40.9083 102.086C40.9083 101.734 40.8203 101.452 40.6443 101.239C40.4683 101.026 40.2336 100.858 39.9403 100.733C39.6543 100.608 39.3389 100.506 38.9943 100.425C38.6569 100.344 38.3123 100.26 37.9603 100.172C37.6156 100.077 37.2966 99.9593 37.0033 99.82C36.7173 99.6733 36.4863 99.4753 36.3103 99.226C36.1416 98.9693 36.0573 98.6393 36.0573 98.236C36.0573 97.8913 36.1489 97.5687 36.3323 97.268C36.5156 96.9673 36.8016 96.7253 37.1903 96.542C37.5789 96.3513 38.0776 96.256 38.6863 96.256C39.1043 96.256 39.5149 96.322 39.9183 96.454C40.3289 96.5787 40.6773 96.7473 40.9633 96.96L40.7983 97.257C40.4903 97.0297 40.1493 96.861 39.7753 96.751C39.4013 96.641 39.0419 96.586 38.6973 96.586C38.1839 96.586 37.7549 96.663 37.4103 96.817C37.0729 96.9637 36.8236 97.1617 36.6623 97.411C36.5009 97.6603 36.4203 97.9353 36.4203 98.236C36.4203 98.5953 36.5083 98.8813 36.6843 99.094C36.8603 99.3067 37.0913 99.4753 37.3773 99.6C37.6706 99.7247 37.9896 99.8273 38.3343 99.908C38.6789 99.9887 39.0236 100.077 39.3683 100.172C39.7129 100.26 40.0283 100.377 40.3143 100.524C40.6076 100.671 40.8386 100.869 41.0073 101.118C41.1833 101.36 41.2713 101.679 41.2713 102.075C41.2713 102.42 41.1759 102.742 40.9853 103.043C40.8019 103.344 40.5086 103.586 40.1053 103.769C39.7093 103.952 39.2033 104.044 38.5873 104.044ZM45.2919 98.247C45.7613 98.247 46.1646 98.3387 46.5019 98.522C46.8466 98.7053 47.1143 98.9767 47.3049 99.336C47.4956 99.688 47.5909 100.124 47.5909 100.645V104H47.2279V100.667C47.2279 99.985 47.0556 99.468 46.7109 99.116C46.3663 98.764 45.8823 98.588 45.2589 98.588C44.7823 98.588 44.3716 98.6833 44.0269 98.874C43.6823 99.0647 43.4183 99.336 43.2349 99.688C43.0516 100.04 42.9599 100.451 42.9599 100.92V104H42.5969V95.838H42.9599V99.897L42.9049 99.798C43.0809 99.3213 43.3706 98.9437 43.7739 98.665C44.1846 98.3863 44.6906 98.247 45.2919 98.247ZM51.6271 104.033C51.0917 104.033 50.6114 103.912 50.1861 103.67C49.7681 103.421 49.4344 103.076 49.1851 102.636C48.9431 102.196 48.8221 101.697 48.8221 101.14C48.8221 100.575 48.9431 100.077 49.1851 99.644C49.4344 99.2113 49.7681 98.8703 50.1861 98.621C50.6114 98.3717 51.0917 98.247 51.6271 98.247C52.1624 98.247 52.6427 98.3717 53.0681 98.621C53.4934 98.8703 53.8271 99.2113 54.0691 99.644C54.3111 100.077 54.4321 100.575 54.4321 101.14C54.4321 101.697 54.3111 102.196 54.0691 102.636C53.8271 103.076 53.4934 103.421 53.0681 103.67C52.6427 103.912 52.1624 104.033 51.6271 104.033ZM51.6271 103.703C52.0964 103.703 52.5144 103.597 52.8811 103.384C53.2551 103.164 53.5447 102.86 53.7501 102.471C53.9627 102.082 54.0691 101.639 54.0691 101.14C54.0691 100.634 53.9627 100.19 53.7501 99.809C53.5447 99.4203 53.2551 99.1197 52.8811 98.907C52.5144 98.6943 52.0964 98.588 51.6271 98.588C51.1651 98.588 50.7507 98.6943 50.3841 98.907C50.0174 99.1197 49.7241 99.4203 49.5041 99.809C49.2914 100.19 49.1851 100.634 49.1851 101.14C49.1851 101.639 49.2914 102.082 49.5041 102.471C49.7241 102.86 50.0174 103.164 50.3841 103.384C50.7507 103.597 51.1651 103.703 51.6271 103.703ZM58.5489 104.033C58.0356 104.033 57.5736 103.916 57.1629 103.681C56.7522 103.439 56.4259 103.102 56.1839 102.669C55.9492 102.229 55.8319 101.723 55.8319 101.151C55.8319 100.572 55.9492 100.066 56.1839 99.633C56.4259 99.193 56.7522 98.852 57.1629 98.61C57.5736 98.368 58.0356 98.247 58.5489 98.247C59.0769 98.247 59.5499 98.3717 59.9679 98.621C60.3932 98.8703 60.7269 99.2113 60.9689 99.644C61.2182 100.077 61.3429 100.579 61.3429 101.151C61.3429 101.716 61.2182 102.214 60.9689 102.647C60.7269 103.08 60.3932 103.421 59.9679 103.67C59.5499 103.912 59.0769 104.033 58.5489 104.033ZM55.7329 106.134V98.291H56.0849V100.293L55.9859 101.162L56.0959 102.031V106.134H55.7329ZM58.5379 103.703C58.9999 103.703 59.4142 103.597 59.7809 103.384C60.1549 103.171 60.4482 102.871 60.6609 102.482C60.8736 102.093 60.9799 101.65 60.9799 101.151C60.9799 100.638 60.8736 100.19 60.6609 99.809C60.4482 99.4277 60.1549 99.1307 59.7809 98.918C59.4142 98.698 58.9999 98.588 58.5379 98.588C58.0686 98.588 57.6506 98.698 57.2839 98.918C56.9172 99.1307 56.6276 99.4277 56.4149 99.809C56.2022 100.19 56.0959 100.638 56.0959 101.151C56.0959 101.65 56.2022 102.093 56.4149 102.482C56.6276 102.871 56.9172 103.171 57.2839 103.384C57.6506 103.597 58.0686 103.703 58.5379 103.703ZM65.4553 104.033C64.9419 104.033 64.4799 103.916 64.0693 103.681C63.6586 103.439 63.3323 103.102 63.0903 102.669C62.8556 102.229 62.7383 101.723 62.7383 101.151C62.7383 100.572 62.8556 100.066 63.0903 99.633C63.3323 99.193 63.6586 98.852 64.0693 98.61C64.4799 98.368 64.9419 98.247 65.4553 98.247C65.9833 98.247 66.4563 98.3717 66.8743 98.621C67.2996 98.8703 67.6333 99.2113 67.8753 99.644C68.1246 100.077 68.2493 100.579 68.2493 101.151C68.2493 101.716 68.1246 102.214 67.8753 102.647C67.6333 103.08 67.2996 103.421 66.8743 103.67C66.4563 103.912 65.9833 104.033 65.4553 104.033ZM62.6393 106.134V98.291H62.9913V100.293L62.8923 101.162L63.0023 102.031V106.134H62.6393ZM65.4443 103.703C65.9063 103.703 66.3206 103.597 66.6873 103.384C67.0613 103.171 67.3546 102.871 67.5673 102.482C67.7799 102.093 67.8863 101.65 67.8863 101.151C67.8863 100.638 67.7799 100.19 67.5673 99.809C67.3546 99.4277 67.0613 99.1307 66.6873 98.918C66.3206 98.698 65.9063 98.588 65.4443 98.588C64.9749 98.588 64.5569 98.698 64.1903 98.918C63.8236 99.1307 63.5339 99.4277 63.3213 99.809C63.1086 100.19 63.0023 100.638 63.0023 101.151C63.0023 101.65 63.1086 102.093 63.3213 102.482C63.5339 102.871 63.8236 103.171 64.1903 103.384C64.5569 103.597 64.9749 103.703 65.4443 103.703ZM69.5456 104V98.291H69.9086V104H69.5456ZM69.7216 96.795C69.6263 96.795 69.542 96.7583 69.4686 96.685C69.3953 96.6117 69.3586 96.531 69.3586 96.443C69.3586 96.3403 69.3953 96.256 69.4686 96.19C69.542 96.1167 69.6263 96.08 69.7216 96.08C69.8243 96.08 69.9086 96.1167 69.9746 96.19C70.048 96.256 70.0846 96.3367 70.0846 96.432C70.0846 96.5273 70.048 96.6117 69.9746 96.685C69.9086 96.7583 69.8243 96.795 69.7216 96.795ZM74.5494 98.247C75.0187 98.247 75.422 98.3387 75.7594 98.522C76.104 98.7053 76.3717 98.9767 76.5624 99.336C76.753 99.688 76.8484 100.124 76.8484 100.645V104H76.4854V100.667C76.4854 99.985 76.313 99.468 75.9684 99.116C75.6237 98.764 75.1397 98.588 74.5164 98.588C74.0397 98.588 73.629 98.6833 73.2844 98.874C72.9397 99.0647 72.6757 99.336 72.4924 99.688C72.309 100.04 72.2174 100.451 72.2174 100.92V104H71.8544V98.291H72.2064V99.897L72.1624 99.798C72.3384 99.3213 72.628 98.9437 73.0314 98.665C73.442 98.3863 73.948 98.247 74.5494 98.247ZM81.0605 106.167C80.5472 106.167 80.0595 106.083 79.5975 105.914C79.1428 105.753 78.7762 105.529 78.4975 105.243L78.7065 104.968C78.9998 105.247 79.3482 105.459 79.7515 105.606C80.1548 105.76 80.5875 105.837 81.0495 105.837C81.8488 105.837 82.4392 105.646 82.8205 105.265C83.2018 104.891 83.3925 104.301 83.3925 103.494V101.767L83.5025 101.019L83.4035 100.271V98.291H83.7555V103.45C83.7555 104.381 83.5318 105.067 83.0845 105.507C82.6372 105.947 81.9625 106.167 81.0605 106.167ZM80.9065 103.802C80.3712 103.802 79.8908 103.685 79.4655 103.45C79.0402 103.208 78.7028 102.878 78.4535 102.46C78.2042 102.042 78.0795 101.562 78.0795 101.019C78.0795 100.476 78.2042 99.996 78.4535 99.578C78.7028 99.16 79.0402 98.8337 79.4655 98.599C79.8908 98.3643 80.3712 98.247 80.9065 98.247C81.4345 98.247 81.9038 98.3643 82.3145 98.599C82.7252 98.8263 83.0515 99.149 83.2935 99.567C83.5355 99.9777 83.6565 100.462 83.6565 101.019C83.6565 101.576 83.5355 102.064 83.2935 102.482C83.0515 102.9 82.7252 103.226 82.3145 103.461C81.9038 103.688 81.4345 103.802 80.9065 103.802ZM80.9175 103.472C81.4015 103.472 81.8268 103.369 82.1935 103.164C82.5675 102.959 82.8608 102.669 83.0735 102.295C83.2862 101.921 83.3925 101.496 83.3925 101.019C83.3925 100.535 83.2862 100.113 83.0735 99.754C82.8608 99.3873 82.5675 99.1013 82.1935 98.896C81.8268 98.6907 81.4015 98.588 80.9175 98.588C80.4482 98.588 80.0265 98.6907 79.6525 98.896C79.2785 99.1013 78.9815 99.3873 78.7615 99.754C78.5488 100.113 78.4425 100.535 78.4425 101.019C78.4425 101.496 78.5488 101.921 78.7615 102.295C78.9815 102.669 79.2785 102.959 79.6525 103.164C80.0265 103.369 80.4482 103.472 80.9175 103.472ZM91.3635 104.044C90.7989 104.044 90.2745 103.949 89.7905 103.758C89.3065 103.56 88.8849 103.285 88.5255 102.933C88.1662 102.581 87.8875 102.17 87.6895 101.701C87.4915 101.224 87.3925 100.707 87.3925 100.15C87.3925 99.5927 87.4915 99.0793 87.6895 98.61C87.8875 98.1333 88.1662 97.719 88.5255 97.367C88.8849 97.015 89.3065 96.7437 89.7905 96.553C90.2745 96.355 90.7989 96.256 91.3635 96.256C91.8842 96.256 92.3755 96.3403 92.8375 96.509C93.2995 96.6777 93.6992 96.9343 94.0365 97.279L93.8055 97.521C93.4609 97.191 93.0832 96.9563 92.6725 96.817C92.2692 96.6703 91.8365 96.597 91.3745 96.597C90.8612 96.597 90.3845 96.6887 89.9445 96.872C89.5045 97.048 89.1195 97.2973 88.7895 97.62C88.4669 97.9427 88.2139 98.3203 88.0305 98.753C87.8545 99.1783 87.7665 99.644 87.7665 100.15C87.7665 100.656 87.8545 101.125 88.0305 101.558C88.2139 101.983 88.4669 102.357 88.7895 102.68C89.1195 103.003 89.5045 103.256 89.9445 103.439C90.3845 103.615 90.8612 103.703 91.3745 103.703C91.8365 103.703 92.2692 103.633 92.6725 103.494C93.0832 103.347 93.4609 103.105 93.8055 102.768L94.0365 103.01C93.6992 103.355 93.2995 103.615 92.8375 103.791C92.3755 103.96 91.8842 104.044 91.3635 104.044ZM98.8667 104V102.669L98.8557 102.471V100.304C98.8557 99.7393 98.7053 99.3103 98.4047 99.017C98.104 98.7237 97.6677 98.577 97.0957 98.577C96.6777 98.577 96.2963 98.6503 95.9517 98.797C95.607 98.9363 95.31 99.1197 95.0607 99.347L94.8627 99.083C95.134 98.8263 95.4677 98.6247 95.8637 98.478C96.2597 98.324 96.674 98.247 97.1067 98.247C97.7887 98.247 98.3093 98.423 98.6687 98.775C99.0353 99.1197 99.2187 99.6293 99.2187 100.304V104H98.8667ZM96.7437 104.033C96.311 104.033 95.9407 103.967 95.6327 103.835C95.332 103.703 95.101 103.516 94.9397 103.274C94.7783 103.025 94.6977 102.742 94.6977 102.427C94.6977 102.148 94.7637 101.892 94.8957 101.657C95.0277 101.415 95.244 101.224 95.5447 101.085C95.8527 100.938 96.2633 100.865 96.7767 100.865H98.9877V101.162H96.7767C96.1533 101.162 95.7097 101.279 95.4457 101.514C95.189 101.749 95.0607 102.046 95.0607 102.405C95.0607 102.808 95.211 103.131 95.5117 103.373C95.8123 103.608 96.2303 103.725 96.7657 103.725C97.2937 103.725 97.73 103.608 98.0747 103.373C98.4193 103.131 98.6797 102.79 98.8557 102.35L98.9767 102.592C98.83 103.025 98.566 103.373 98.1847 103.637C97.8033 103.901 97.323 104.033 96.7437 104.033ZM101.101 104V98.291H101.453V99.864L101.42 99.765C101.574 99.2883 101.842 98.918 102.223 98.654C102.612 98.3827 103.096 98.247 103.675 98.247V98.61C103.66 98.61 103.642 98.61 103.62 98.61C103.605 98.61 103.591 98.61 103.576 98.61C102.916 98.61 102.399 98.819 102.025 99.237C101.651 99.655 101.464 100.231 101.464 100.964V104H101.101ZM106.583 104.033C106.113 104.033 105.754 103.901 105.505 103.637C105.255 103.373 105.131 103.017 105.131 102.57V97.037H105.494V102.515C105.494 102.904 105.589 103.201 105.78 103.406C105.97 103.611 106.249 103.714 106.616 103.714C106.99 103.714 107.298 103.6 107.54 103.373L107.727 103.637C107.587 103.769 107.415 103.868 107.21 103.934C107.004 104 106.795 104.033 106.583 104.033ZM104.053 98.61V98.291H107.375V98.61H104.053Z" fill="#30918D"/>
</g>
<defs>
<clipPath id="clip0_1_2">
<rect width="113" height="113" fill="white"/>
</clipPath>
</defs>
</svg>
