<svg width="113" height="113" viewBox="0 0 113 113" fill="none" xmlns="http://www.w3.org/2000/svg">
<g clip-path="url(#clip0_1_2)">
<path d="M45.12 14C52.16 14 57.44 14.8267 60.96 16.48C64.48 18.08 66.24 20.6667 66.24 24.24C66.24 27.76 65.1467 30.4533 62.96 32.32C60.8267 34.1333 58.3733 35.04 55.6 35.04C52.8267 35.04 50.32 34.3467 48.08 32.96C45.8933 31.52 44.3733 29.6267 43.52 27.28C41.5467 27.28 39.6533 27.9467 37.84 29.28C36.08 30.56 34.96 32.24 34.48 34.32C45.04 36.88 52.6133 39.8667 57.2 43.28C61.7867 46.6933 64.08 51.0667 64.08 56.4C64.08 61.7333 61.6533 66 56.8 69.2C52 72.4 45.4933 74 37.28 74C29.12 74 23.3333 72.88 19.92 70.64C16.5067 68.4 14.8 65.44 14.8 61.76C14.8 58.08 15.9467 54.6933 18.24 51.6C19.36 54 21.4933 56.16 24.64 58.08C27.84 60 30.9867 60.96 34.08 60.96C39.7867 60.96 43.4133 59.1467 44.96 55.52C36.1067 54.3467 29.36 51.8933 24.72 48.16C20.08 44.3733 17.76 39.8133 17.76 34.48C17.76 30.9067 18.72 27.7333 20.64 24.96C22.56 22.1333 25.0133 19.9733 28 18.48C33.8667 15.4933 39.5733 14 45.12 14Z" fill="#30918D"/>
<path d="M79.08 61.68C79.08 59.44 79.4533 55.76 80.2 50.64H62.12C61.4267 54.64 61.08 57.3867 61.08 58.88C61.08 64.0533 61.88 67.92 63.48 70.48C60.28 72.88 56.9467 74.08 53.48 74.08C50.0133 74.08 47.5333 73.0933 46.04 71.12C44.5467 69.0933 43.8 66.1067 43.8 62.16C43.8 58.16 45.48 46.88 48.84 28.32L44.6 19.76C50.6267 15.8667 56.12 13.92 61.08 13.92C65.1867 13.92 67.24 16.4267 67.24 21.44C67.24 22.9333 66.12 29.4933 63.88 41.12H81.8C82.0133 39.7867 82.7867 35.52 84.12 28.32L79.88 19.76C85.9067 15.8667 91.4 13.92 96.36 13.92C100.467 13.92 102.52 16.4267 102.52 21.44C102.52 23.0933 101.48 29.2533 99.4 39.92C97.3733 50.5333 96.36 56.8533 96.36 58.88C96.36 64.0533 97.16 67.92 98.76 70.48C95.56 72.88 92.2267 74.08 88.76 74.08C85.2933 74.08 82.8133 73.0933 81.32 71.12C79.8267 69.0933 79.08 65.9467 79.08 61.68Z" fill="#30918D" fill-opacity="0.76"/>
<path d="M48.4 74.44C48.4 70.7067 49.2 66.92 50.8 63.08C52.4 59.1867 54.6667 55.5867 57.6 52.28C60.5333 48.9733 64.3467 46.28 69.04 44.2C73.7867 42.0667 78.6667 41 83.68 41C88.7467 41 92.6933 41.9333 95.52 43.8C98.4 45.6667 99.84 48.2533 99.84 51.56C99.84 54.8667 98.7467 57.4533 96.56 59.32C94.4267 61.1333 91.9733 62.04 89.2 62.04C86.4267 62.04 83.92 61.4533 81.68 60.28C79.4933 59.0533 77.7333 57.32 76.4 55.08C73.52 56.4667 71.04 59.1867 68.96 63.24C66.88 67.2933 65.84 71.3733 65.84 75.48C65.84 79.5333 66.5067 82.76 67.84 85.16C69.1733 87.5067 71.0667 88.68 73.52 88.68C75.9733 88.68 78.1333 87.4267 80 84.92C81.92 82.4133 82.88 79.4 82.88 75.88C88.2667 75.88 92.1067 76.3067 94.4 77.16C96.7467 78.0133 97.92 79.8533 97.92 82.68C97.92 87.1067 95.52 91.2667 90.72 95.16C85.92 99.0533 79.8933 101 72.64 101C65.3867 101 59.52 98.76 55.04 94.28C50.6133 89.8 48.4 83.1867 48.4 74.44Z" fill="#30918D"/>
</g>
<defs>
<clipPath id="clip0_1_2">
<rect width="113" height="113" fill="white"/>
</clipPath>
</defs>
</svg>
